<svg width="1344" height="768" xmlns="http://www.w3.org/2000/svg">
  <defs>
    <linearGradient id="grad3" x1="0%" y1="0%" x2="100%" y2="100%">
      <stop offset="0%" style="stop-color:#0d9488;stop-opacity:0.4" />
      <stop offset="100%" style="stop-color:#22c55e;stop-opacity:0.2" />
    </linearGradient>
  </defs>
  <rect width="100%" height="100%" fill="url(#grad3)"/>
  <rect x="100" y="150" width="400" height="300" rx="20" fill="#22c55e" opacity="0.2"/>
  <rect x="120" y="170" width="80" height="30" fill="#0d9488" opacity="0.3"/>
  <rect x="220" y="170" width="80" height="30" fill="#0d9488" opacity="0.3"/>
  <rect x="320" y="170" width="80" height="30" fill="#0d9488" opacity="0.3"/>
  <rect x="120" y="220" width="80" height="30" fill="#0d9488" opacity="0.2"/>
  <rect x="220" y="220" width="80" height="30" fill="#0d9488" opacity="0.2"/>
  <rect x="320" y="220" width="80" height="30" fill="#0d9488" opacity="0.2"/>
  <rect x="120" y="270" width="80" height="30" fill="#0d9488" opacity="0.2"/>
  <rect x="220" y="270" width="80" height="30" fill="#0d9488" opacity="0.2"/>
  <rect x="320" y="270" width="80" height="30" fill="#0d9488" opacity="0.2"/>
  <circle cx="800" cy="300" r="100" fill="#0d9488" opacity="0.2"/>
  <circle cx="1000" cy="400" r="120" fill="#22c55e" opacity="0.15"/>
  <path d="M 600 384 L 750 384 L 750 300 L 900 384 L 750 468 L 750 384" fill="#0d9488" opacity="0.3"/>
  <text x="672" y="550" font-family="Arial, sans-serif" font-size="36" fill="#0d9488" text-anchor="middle" opacity="0.6">Google Sheets Integration</text>
  <text x="672" y="600" font-family="Arial, sans-serif" font-size="24" fill="#0d9488" text-anchor="middle" opacity="0.4">Real-Time Data Sync</text>
</svg>
